<?xml version="1.0" encoding="UTF-8" standalone="no"?>
<svg
   viewBox="0 0 204.02626 188.00491"
   fill="currentColor"
   version="1.1"
   id="svg1"
   sodipodi:docname="chat-lang.svg"
   inkscape:version="1.4.2 (ebf0e94, 2025-05-08)"
   inkscape:export-filename="chat-lang.svg"
   inkscape:export-xdpi="42.666668"
   inkscape:export-ydpi="42.666668"
   width="204.02626"
   height="188.00491"
   xmlns:inkscape="http://www.inkscape.org/namespaces/inkscape"
   xmlns:sodipodi="http://sodipodi.sourceforge.net/DTD/sodipodi-0.dtd"
   xmlns="http://www.w3.org/2000/svg"
   xmlns:svg="http://www.w3.org/2000/svg">
  <defs
     id="defs1" />
  <sodipodi:namedview
     id="namedview1"
     pagecolor="#ffffff"
     bordercolor="#000000"
     borderopacity="0.25"
     inkscape:showpageshadow="2"
     inkscape:pageopacity="0.0"
     inkscape:pagecheckerboard="0"
     inkscape:deskcolor="#d1d1d1"
     inkscape:zoom="2.7890625"
     inkscape:cx="116.16807"
     inkscape:cy="84.97479"
     inkscape:window-width="1387"
     inkscape:window-height="842"
     inkscape:window-x="25"
     inkscape:window-y="64"
     inkscape:window-maximized="0"
     inkscape:current-layer="svg1" />
  <path
     id="path1"
     d="m 186.95875,0.01260153 c -57.73144,0.0054 -115.464065,-0.01104 -173.195322,0.0078 -0.166312,0.0045 -0.331735,0.0092 -0.498047,0.01367 -5.42058,0.217969 -10.471584,3.92402997 -12.34375002,9.00976597 -1.231603,2.9923475 -0.850855,6.2712805 -0.910156,9.4218755 0.0052,52.021599 -0.01041,104.042967 0.0078,156.064467 0.09998,5.28762 3.54088102,10.31517 8.43359402,12.32226 4.664229,2.0716 10.433519,1.31071 14.361328,-1.96289 11.171359,-9.60082 22.299271,-19.25483 33.453137,-28.87694 44.663736,-0.005 89.328646,0.011 133.992196,-0.008 5.52791,-0.0126 10.79413,-3.68331 12.76953,-8.83789 1.06145,-2.4631 1.02141,-5.17876 0.98242,-7.80664 -0.007,-41.898094 0.0134,-83.797488 -0.0117,-125.695324 -0.0506,-5.5277285 -3.75802,-10.7657835 -8.92578,-12.70507847 -2.56634,-1.087628 -5.38975,-0.96393 -8.11525,-0.947076 z M 12.011475,12.012602 h 2 178.000005 V 144.01261 c -46.0846,0.005 -92.169512,-0.0106 -138.253911,0.008 -1.798867,0.0423 -3.351088,1.08925 -4.595703,2.30469 -12.383278,10.68436 -24.767526,21.36928 -37.150391,32.0545 z m 95.748055,8 a 57.747899,57.747899 0 1 0 57.74804,57.74805 57.814531,57.814531 0 0 0 -57.74804,-57.74805 z M 96.425538,30.229399 A 75.11669,75.11669 0 0 0 84.044675,55.549712 H 64.243897 A 49.024635,49.024635 0 0 1 96.425538,30.229399 Z m 22.666022,0 a 49.024635,49.024635 0 0 1 32.18359,25.320313 h -0.0215 -19.7793 A 75.11669,75.11669 0 0 0 119.09156,30.229399 Z m -11.33203,0.333984 a 64.005772,64.005772 0 0 1 14.4375,24.986329 H 93.322028 A 63.91693,63.91693 0 0 1 107.75953,30.563383 Z M 60.743897,64.434482 h 21.384768 a 87.421435,87.421435 0 0 0 0,26.652344 H 60.743897 a 48.647052,48.647052 0 0 1 -1.847656,-13.326174 48.647052,48.647052 0 0 1 1.847656,-13.32617 z m 30.412111,0 h 33.250002 a 78.203982,78.203982 0 0 1 0,26.652344 H 91.156008 a 78.203982,78.203982 0 0 1 0,-26.652344 z m 42.234382,0 h 21.38281 a 48.647052,48.647052 0 0 1 1.84961,13.32617 48.647052,48.647052 0 0 1 -1.84961,13.326174 h -21.38281 a 87.421435,87.421435 0 0 0 0,-26.652344 z M 64.243897,99.971586 H 84.044675 A 75.11669,75.11669 0 0 0 96.425538,125.29191 49.024635,49.024635 0 0 1 64.243897,99.971586 Z m 29.078131,0 H 122.19703 A 63.91693,63.91693 0 0 1 107.75953,124.95792 64.005772,64.005772 0 0 1 93.322028,99.971586 Z m 38.152342,0 h 19.80078 a 49.024635,49.024635 0 0 1 -32.18359,25.320324 75.11669,75.11669 0 0 0 12.38281,-25.320324 z" />
</svg>
