<svg width="48" height="48" viewBox="0 0 100 100" xmlns="http://www.w3.org/2000/svg">
  <g transform="translate(10, 5) scale(0.85, 0.935)">
    <!-- f (Dark Navy) -->
    <path d="M25 10 C21 10 19 12 19 16 V24 H10 V36 H19 V86 H31 V36 H42 V24 H31 V16 C31 14.5 32 13.5 34 13.5 H42 V0 H34 C28 0 25 2 25 10 Z" fill="#2C3650"/>
    <!-- . (Coral) -->
    <circle cx="56" cy="80" r="8" fill="#E8887A"/>
    <!-- p (Sea Wave) -->
    <path d="M68 36 V96 H80 V70 H81 C88 70 94 65 94 53 C94 41 88 36 81 36 H68 Z M80 48 C83 48 85 49 85 53 C85 57 83 58 80 58 V48 Z" fill="#23AFCA"/>
  </g>
</svg>
