<?xml version="1.0" encoding="UTF-8" standalone="no"?>
<!-- Created with Inkscape (http://www.inkscape.org/) -->

<svg
   version="1.1"
   id="svg1"
   width="111.6566"
   height="93.634094"
   viewBox="0 0 111.6566 93.634094"
   xmlns="http://www.w3.org/2000/svg"
   xmlns:svg="http://www.w3.org/2000/svg">
  <defs
     id="defs1" />
  <g
     id="g1"
     style="display:inline"
     transform="translate(-46.631557,-48.809643)">
    <path
       id="path39169"
       style="fill:#252122;stroke:none"
       d="m 68.386719,48.816406 c -0.973068,0.0331 -2.00641,0.181517 -3.117188,0.472656 -17.016083,4.459992 -6.84446,24.670998 4,29.441407 v 1 c -24.867256,10.869141 -33.44957,49.124141 -4,60.533201 12.93502,5.01115 24.123091,-0.18555 36.999999,-0.18555 15.35562,0 28.4408,6.28392 42.99609,-2.81445 23.81988,-14.88956 11.65454,-48.070005 -9.99609,-57.533201 v -1 c 2.68198,-2.282233 6.03257,-4.801616 8.25586,-7.791016 C 156.41666,53.606028 134.56316,41.335956 120.26953,56.730469 113.7634,54.614167 108.74171,52.558753 101.7907,53.012412 97.294864,53.305823 90.421324,54.737023 86.073652,57.070692 80.188418,54.365739 75.19819,48.584683 68.386719,48.816406 Z m 66.775391,5.199219 c 0.32172,-0.01378 0.6406,-0.01375 0.95703,0.002 0.72328,0.0359 1.43004,0.154043 2.10547,0.371094 11.04259,3.548569 1.91083,17.000984 -4.95508,19.341797 0,0 -1.74977,-6.100367 -8.85912,-14.239415 1.77842,-1.161857 5.92594,-5.268717 10.7517,-5.475429 z m -66.767579,0.04297 c 4.947184,-0.129564 10.424791,3.94128 14.21875,6.419922 l -4.974609,6.58789 c 0,0 -2.263693,4.877655 -5.427734,8.009766 -5.449756,-0.632595 -18.420024,-16.870023 -5.898438,-20.6875 0.67861,-0.206889 1.375291,-0.311569 2.082031,-0.330078 z m 33.888669,3.685547 c 1.34187,-0.0098 2.68402,0.06179 4.01368,0.216797 7.97786,0.930044 15.5146,4.835203 20.00195,11.771484 2.57826,3.985321 3.07848,9.248099 6.27344,12.789062 7.1861,5.652903 13.62711,9.107117 17.65039,17.208985 9.32307,18.77431 -0.72489,34.86649 -19.95313,37.57226 -9.78206,1.37652 -18.4657,-2.29399 -28,-2.22656 -15.164422,0.10726 -32.171195,7.98875 -44.660155,-5.52929 -9.758255,-10.56234 -7.341702,-26.94673 1.833984,-36.777348 3.912468,-4.191726 8.907595,-6.997484 13.261719,-11.142578 10.022296,-9.54115 9.126293,-21.452209 25.564453,-23.607422 1.330215,-0.174404 2.671799,-0.265591 4.013669,-0.27539 z M 84.689453,84.134766 c -0.686512,-0.03512 -1.423506,0.07997 -2.193359,0.382812 -5.623192,2.212059 -2.344004,11.470811 3.664062,9.41211 5.696542,-1.951957 3.334883,-9.549075 -1.470703,-9.794922 z m 35.417967,0.02539 c -0.54642,0.02093 -1.12663,0.134943 -1.73437,0.357422 -5.88727,2.155189 -2.95623,10.59822 2.84179,9.501953 6.16704,-1.16604 4.30777,-9.485318 -0.57226,-9.849609 -0.17429,-0.01301 -0.35302,-0.01674 -0.53516,-0.0098 z M 68.269531,105.73047 c 0.99749,4.65495 9.789909,4.78773 14,5 -2.786034,-4.34689 -9.237198,-4.10264 -14,-5 z m 67.999999,0 c -4.7628,0.89736 -11.21396,0.65311 -14,5 4.2101,-0.21227 13.00249,-0.34504 14,-5 z m -41.702679,2.63867 c -0.947134,3.54778 4.66701,4.1368 7.078099,5.62067 0.084,1.35951 0.11894,4.73606 0.0572,5.6022 -1.13703,0.12238 -2.711555,0.68076 -3.434262,1.01663 -2.312013,1.07446 -4.363025,2.63819 -3.522961,3.50269 1.248149,1.28445 3.016811,-1.92549 5.533203,-2.12305 1.53628,-0.67166 3.05178,-0.59231 4.28887,-0.25068 4.24146,1.1104 4.27157,3.28923 5.70137,2.61398 1.50338,-1.30605 -2.80371,-4.23365 -6.72512,-4.68832 0,0 -0.19895,-2.1237 -0.0935,-5.74187 2.8608,-1.36634 7.92359,-2.01465 6.96894,-5.01121 -0.66221,-2.56914 -4.95004,-2.34521 -7.56641,-1.13282 l -0.69234,0.32082 c -2.11016,-1.03117 -6.904851,-2.52325 -7.593109,0.27098 z m -12.29732,5.36133 c -5.022446,0.3997 -12.938835,0.64915 -16,5 5.022438,-0.3997 12.938835,-0.64915 16,-5 z m 39.999999,0 c 3.06116,4.35085 10.97755,4.6003 16,5 -3.06119,-4.35085 -10.97754,-4.6003 -16,-5 z m -36.999999,4 c -4.544121,1.72235 -9.416496,4.19156 -11,9 4.544121,-1.72235 9.416496,-4.19157 11,-9 z m 33.999999,0 c 1.58351,4.80845 6.45586,7.27764 11,9 -1.58353,-4.80843 -6.45586,-7.27764 -11,-9 z" />
  </g>
</svg>
